FFmpeg version SVN-r25716, Copyright (c) 2000-2010 the FFmpeg developers  built on Nov 10 2010 12:23:18 with gcc 4.1.2 20080704 (Red Hat 4.1.2-48)  configuration: --enable-libmp3lame --enable-shared --disable-mmx --arch=x86_64  libavutil     50.33. 0 / 50.33. 0  libavcore      0.12. 1 /  0.12. 1  libavcodec    52.94. 4 / 52.94. 4  libavformat   52.84. 0 / 52.84. 0  libavdevice   52. 2. 2 / 52. 2. 2  libavfilter    1.59. 0 /  1.59. 0  libswscale     0.12. 0 /  0.12. 0Input #0, avi, from '/RAID10/data/converted_video_files/43451.avi':  Duration: 00:00:43.50, start: 0.000000, bitrate: 20404 kb/s    Stream #0.0: Video: msvideo1, rgb555le, 1052x684, 8 tbr, 8 tbn, 8 tbc[buffer @ 0x3510bf0] w:1052 h:684 pixfmt:rgb555le[ffsink @ 0x3510e60] auto-inserting filter 'auto-inserted scaler 0' between the filter 'src' and the filter 'out'[scale @ 0x3511180] w:1052 h:684 fmt:rgb555le -> w:1052 h:684 fmt:yuv420p flags:0x4Output #0, flv, to '/RAID10/data/converted_video_files/43451.flv':  Metadata:    encoder         : Lavf52.84.0    Stream #0.0: Video: flv, yuv420p, 1052x684, q=2-31, 600 kb/s, 1k tbn, 24 tbcStream mapping:  Stream #0.0 -> #0.0Press [q] to stop encodingframe=   14 fps=  0 q=9.9 size=     240kB time=1.67 bitrate=1180.3kbits/s    frame=   27 fps= 23 q=10.9 size=     313kB time=3.29 bitrate= 778.6kbits/s    frame=   42 fps= 25 q=10.6 size=     392kB time=5.17 bitrate= 621.5kbits/s    frame=   58 fps= 26 q=11.3 size=     484kB time=7.17 bitrate= 552.9kbits/s    frame=   72 fps= 26 q=10.0 size=     564kB time=8.92 bitrate= 518.6kbits/s    frame=   82 fps= 25 q=10.5 size=     636kB time=10.17 bitrate= 512.3kbits/s    frame=   99 fps= 26 q=9.7 size=     769kB time=12.29 bitrate= 512.8kbits/s    frame=  116 fps= 27 q=9.2 size=     873kB time=14.42 bitrate= 496.3kbits/s    frame=  134 fps= 28 q=9.3 size=    1020kB time=16.67 bitrate= 501.4kbits/s    frame=  152 fps= 29 q=8.7 size=    1136kB time=18.92 bitrate= 492.2kbits/s    frame=  167 fps= 29 q=8.4 size=    1244kB time=20.79 bitrate= 490.1kbits/s    frame=  177 fps= 28 q=8.1 size=    1325kB time=22.04 bitrate= 492.6kbits/s    frame=  191 fps= 28 q=8.4 size=    1435kB time=23.79 bitrate= 494.1kbits/s    frame=  208 fps= 28 q=8.0 size=    1593kB time=25.92 bitrate= 503.4kbits/s    frame=  225 fps= 29 q=7.3 size=    1714kB time=28.04 bitrate= 500.6kbits/s    frame=  243 fps= 29 q=7.4 size=    1877kB time=30.29 bitrate= 507.7kbits/s    frame=  257 fps= 29 q=7.3 size=    1988kB time=32.04 bitrate= 508.2kbits/s    frame=  273 fps= 29 q=7.4 size=    2111kB time=34.04 bitrate= 508.0kbits/s    frame=  290 fps= 29 q=6.9 size=    2275kB time=36.17 bitrate= 515.4kbits/s    frame=  307 fps= 29 q=6.6 size=    2403kB time=38.29 bitrate= 514.0kbits/s    frame=  324 fps= 30 q=7.2 size=    2539kB time=40.42 bitrate= 514.6kbits/s    frame=  341 fps= 30 q=7.0 size=    2705kB time=42.54 bitrate= 520.9kbits/s    frame=  348 fps= 30 q=6.7 Lsize=    2744kB time=43.42 bitrate= 517.8kbits/s    video:2739kB audio:0kB global headers:0kB muxing overhead 0.206029%